<svg width="900" height="420" viewBox="0 0 900 420" xmlns="http://www.w3.org/2000/svg">
  <defs>
    <linearGradient id="gradientBirth" x1="0%" y1="0%" x2="100%" y2="100%">
      <stop offset="0%" stop-color="#deecd9"/>
      <stop offset="100%" stop-color="#8aa58a"/>
    </linearGradient>
    <linearGradient id="gradientPartner" x1="0%" y1="0%" x2="100%" y2="100%">
      <stop offset="0%" stop-color="#eef6ff"/>
      <stop offset="100%" stop-color="#7da9d2"/>
    </linearGradient>
    <linearGradient id="gradientBreastfeeding" x1="0%" y1="0%" x2="100%" y2="100%">
      <stop offset="0%" stop-color="#fdebd4"/>
      <stop offset="100%" stop-color="#d08a5d"/>
    </linearGradient>
    <filter id="shadow" x="-20%" y="-20%" width="140%" height="140%">
      <feDropShadow dx="0" dy="8" stdDeviation="12" flood-color="#000" flood-opacity="0.15"/>
    </filter>
  </defs>

  <rect x="30" y="30" width="260" height="260" rx="28" fill="url(#gradientBirth)" filter="url(#shadow)"/>
  <path d="M125 120 
           c15 -20 45 -20 60 0
           c5 7 5 16 0 24
           l-5 7
           c-10 10 -30 10 -40 0
           z" fill="#fff" opacity="0.9"/>
  <path d="M140 150 l20 0 c6 0 12 4 12 10 v26 h-48 v-26 c0 -6 6 -10 12 -10z" fill="#fff" opacity="0.8"/>

  <rect x="320" y="30" width="260" height="260" rx="28" fill="url(#gradientPartner)" filter="url(#shadow)"/>
  <circle cx="470" cy="120" r="28" fill="#fff" opacity="0.9"/>
  <circle cx="470" cy="175" r="22" fill="#fff" opacity="0.9"/>
  <rect x="430" y="175" width="80" height="32" rx="15" fill="#fff" opacity="0.9"/>

  <rect x="610" y="30" width="260" height="260" rx="28" fill="url(#gradientBreastfeeding)" filter="url(#shadow)"/>
  <path d="M700 130 c20 -30 70 -30 90 0 c10 10 10 22 0 32 c-10 10 -25 15 -40 15 s-30 -5 -40 -15 c-10 -10 -10 -22 0 -32z" fill="#fff" opacity="0.9"/>
  <path d="M700 190 l60 0 c15 0 28 12 28 28 s-13 28 -28 28 h-60 c-15 0 -28 -12 -28 -28 s13 -28 28 -28z" fill="#fff" opacity="0.7"/>

  <rect x="30" y="310" width="260" height="80" rx="12" fill="#fff"/>
  <rect x="320" y="310" width="260" height="80" rx="12" fill="#fff"/>
  <rect x="610" y="310" width="260" height="80" rx="12" fill="#fff"/>

  <text x="80" y="355" font-family="Inter, sans-serif" font-size="18" fill="#2d3436" font-weight="700">
    Birth Support
  </text>
  <text x="370" y="355" font-family="Inter, sans-serif" font-size="18" fill="#2d3436" font-weight="700">
    Partner Tips
  </text>
  <text x="660" y="355" font-family="Inter, sans-serif" font-size="18" fill="#2d3436" font-weight="700">
    Breastfeeding
  </text>
</svg>
